<svg xmlns="http://www.w3.org/2000/svg" xmlns:xlink="http://www.w3.org/1999/xlink" width="500" zoomAndPan="magnify" viewBox="0 0 375 374.999991" height="500" preserveAspectRatio="xMidYMid meet" version="1.0"><defs><g/><clipPath id="f51e8dbdbc"><path d="M 51.570312 51.570312 L 323.070312 51.570312 L 323.070312 323.070312 L 51.570312 323.070312 Z M 51.570312 51.570312 " clip-rule="nonzero"/></clipPath><clipPath id="f129a6a63f"><path d="M 157 107.277344 L 247 107.277344 L 247 219 L 157 219 Z M 157 107.277344 " clip-rule="nonzero"/></clipPath><clipPath id="6c82f5ae23"><path d="M 126 127 L 187 127 L 187 220.527344 L 126 220.527344 Z M 126 127 " clip-rule="nonzero"/></clipPath><clipPath id="ce8d7899cf"><path d="M 132 107.277344 L 229 107.277344 L 229 159 L 132 159 Z M 132 107.277344 " clip-rule="nonzero"/></clipPath></defs><rect x="-37.5" width="450" fill="#ffffff" y="-37.499999" height="449.999989" fill-opacity="1"/><rect x="-37.5" width="450" fill="#058789" y="-37.499999" height="449.999989" fill-opacity="1"/><g clip-path="url(#f51e8dbdbc)"><path fill="#ffffff" d="M 323.421875 187.496094 C 323.421875 189.722656 323.367188 191.945312 323.261719 194.167969 C 323.152344 196.390625 322.988281 198.605469 322.769531 200.820312 C 322.550781 203.035156 322.277344 205.242188 321.953125 207.441406 C 321.625 209.644531 321.246094 211.832031 320.8125 214.015625 C 320.378906 216.199219 319.890625 218.367188 319.351562 220.523438 C 318.808594 222.683594 318.214844 224.828125 317.570312 226.953125 C 316.925781 229.082031 316.226562 231.195312 315.476562 233.289062 C 314.726562 235.382812 313.929688 237.460938 313.078125 239.515625 C 312.226562 241.570312 311.324219 243.601562 310.375 245.613281 C 309.421875 247.625 308.421875 249.609375 307.375 251.574219 C 306.324219 253.535156 305.230469 255.46875 304.085938 257.378906 C 302.941406 259.285156 301.75 261.164062 300.515625 263.015625 C 299.28125 264.863281 298 266.683594 296.675781 268.46875 C 295.347656 270.253906 293.980469 272.007812 292.570312 273.726562 C 291.160156 275.449219 289.707031 277.132812 288.210938 278.78125 C 286.71875 280.429688 285.183594 282.039062 283.613281 283.613281 C 282.039062 285.183594 280.429688 286.71875 278.78125 288.210938 C 277.132812 289.707031 275.449219 291.160156 273.726562 292.570312 C 272.007812 293.980469 270.253906 295.347656 268.46875 296.675781 C 266.683594 298 264.863281 299.28125 263.015625 300.515625 C 261.164062 301.75 259.285156 302.941406 257.378906 304.085938 C 255.46875 305.230469 253.535156 306.324219 251.574219 307.375 C 249.609375 308.421875 247.625 309.421875 245.613281 310.375 C 243.601562 311.324219 241.570312 312.226562 239.515625 313.078125 C 237.460938 313.929688 235.382812 314.726562 233.289062 315.476562 C 231.195312 316.226562 229.082031 316.925781 226.953125 317.570312 C 224.828125 318.214844 222.683594 318.808594 220.523438 319.351562 C 218.367188 319.890625 216.199219 320.378906 214.015625 320.8125 C 211.832031 321.246094 209.644531 321.625 207.441406 321.953125 C 205.242188 322.277344 203.035156 322.550781 200.820312 322.769531 C 198.605469 322.988281 196.390625 323.152344 194.167969 323.261719 C 191.945312 323.367188 189.722656 323.421875 187.496094 323.421875 C 185.273438 323.421875 183.050781 323.367188 180.828125 323.261719 C 178.605469 323.152344 176.386719 322.988281 174.175781 322.769531 C 171.960938 322.550781 169.753906 322.277344 167.554688 321.953125 C 165.351562 321.625 163.160156 321.246094 160.980469 320.8125 C 158.796875 320.378906 156.628906 319.890625 154.46875 319.351562 C 152.3125 318.808594 150.167969 318.214844 148.039062 317.570312 C 145.910156 316.925781 143.800781 316.226562 141.707031 315.476562 C 139.609375 314.726562 137.535156 313.929688 135.480469 313.078125 C 133.425781 312.226562 131.394531 311.324219 129.382812 310.375 C 127.371094 309.421875 125.382812 308.421875 123.421875 307.375 C 121.460938 306.324219 119.527344 305.230469 117.617188 304.085938 C 115.710938 302.941406 113.832031 301.75 111.980469 300.515625 C 110.132812 299.28125 108.3125 298 106.527344 296.675781 C 104.738281 295.347656 102.988281 293.980469 101.265625 292.570312 C 99.546875 291.160156 97.863281 289.707031 96.214844 288.210938 C 94.566406 286.71875 92.957031 285.183594 91.382812 283.613281 C 89.8125 282.039062 88.277344 280.429688 86.785156 278.78125 C 85.289062 277.132812 83.835938 275.449219 82.425781 273.726562 C 81.015625 272.007812 79.644531 270.253906 78.320312 268.46875 C 76.996094 266.683594 75.714844 264.863281 74.480469 263.015625 C 73.242188 261.164062 72.054688 259.285156 70.910156 257.378906 C 69.765625 255.46875 68.671875 253.535156 67.621094 251.574219 C 66.574219 249.609375 65.574219 247.625 64.621094 245.613281 C 63.671875 243.601562 62.769531 241.570312 61.917969 239.515625 C 61.066406 237.460938 60.265625 235.382812 59.519531 233.289062 C 58.769531 231.195312 58.070312 229.082031 57.425781 226.953125 C 56.777344 224.828125 56.1875 222.683594 55.644531 220.523438 C 55.105469 218.367188 54.617188 216.199219 54.183594 214.015625 C 53.75 211.832031 53.371094 209.644531 53.042969 207.441406 C 52.71875 205.242188 52.445312 203.035156 52.226562 200.820312 C 52.007812 198.605469 51.84375 196.390625 51.734375 194.167969 C 51.625 191.945312 51.570312 189.722656 51.570312 187.496094 C 51.570312 185.273438 51.625 183.050781 51.734375 180.828125 C 51.84375 178.605469 52.007812 176.386719 52.226562 174.175781 C 52.445312 171.960938 52.71875 169.753906 53.042969 167.554688 C 53.371094 165.351562 53.75 163.160156 54.183594 160.980469 C 54.617188 158.796875 55.105469 156.628906 55.644531 154.46875 C 56.1875 152.3125 56.777344 150.167969 57.425781 148.039062 C 58.070312 145.910156 58.769531 143.800781 59.519531 141.707031 C 60.265625 139.609375 61.066406 137.535156 61.917969 135.480469 C 62.769531 133.425781 63.671875 131.394531 64.621094 129.382812 C 65.574219 127.371094 66.574219 125.382812 67.621094 123.421875 C 68.671875 121.460938 69.765625 119.527344 70.910156 117.617188 C 72.054688 115.710938 73.242188 113.832031 74.480469 111.980469 C 75.714844 110.132812 76.996094 108.3125 78.320312 106.527344 C 79.644531 104.738281 81.015625 102.988281 82.425781 101.265625 C 83.835938 99.546875 85.289062 97.863281 86.785156 96.214844 C 88.277344 94.566406 89.8125 92.957031 91.382812 91.382812 C 92.957031 89.8125 94.566406 88.277344 96.214844 86.785156 C 97.863281 85.289062 99.546875 83.835938 101.265625 82.425781 C 102.988281 81.015625 104.738281 79.644531 106.527344 78.320312 C 108.3125 76.996094 110.132812 75.714844 111.980469 74.480469 C 113.832031 73.242188 115.710938 72.054688 117.617188 70.910156 C 119.527344 69.765625 121.460938 68.671875 123.421875 67.621094 C 125.382812 66.574219 127.371094 65.574219 129.382812 64.621094 C 131.394531 63.671875 133.425781 62.769531 135.480469 61.917969 C 137.535156 61.066406 139.609375 60.265625 141.707031 59.519531 C 143.800781 58.769531 145.910156 58.070312 148.039062 57.425781 C 150.167969 56.777344 152.3125 56.1875 154.46875 55.644531 C 156.628906 55.105469 158.796875 54.617188 160.980469 54.183594 C 163.160156 53.75 165.351562 53.371094 167.554688 53.042969 C 169.753906 52.71875 171.960938 52.445312 174.175781 52.226562 C 176.386719 52.007812 178.605469 51.84375 180.828125 51.734375 C 183.050781 51.625 185.273438 51.570312 187.496094 51.570312 C 189.722656 51.570312 191.945312 51.625 194.167969 51.734375 C 196.390625 51.84375 198.605469 52.007812 200.820312 52.226562 C 203.035156 52.445312 205.242188 52.71875 207.441406 53.042969 C 209.644531 53.371094 211.832031 53.75 214.015625 54.183594 C 216.199219 54.617188 218.367188 55.105469 220.523438 55.644531 C 222.683594 56.1875 224.828125 56.777344 226.953125 57.425781 C 229.082031 58.070312 231.195312 58.769531 233.289062 59.519531 C 235.382812 60.265625 237.460938 61.066406 239.515625 61.917969 C 241.570312 62.769531 243.601562 63.671875 245.613281 64.621094 C 247.625 65.574219 249.609375 66.574219 251.574219 67.621094 C 253.535156 68.671875 255.46875 69.765625 257.378906 70.910156 C 259.285156 72.054688 261.164062 73.242188 263.015625 74.480469 C 264.863281 75.714844 266.683594 76.996094 268.46875 78.320312 C 270.253906 79.644531 272.007812 81.015625 273.726562 82.425781 C 275.449219 83.835938 277.132812 85.289062 278.78125 86.785156 C 280.429688 88.277344 282.039062 89.8125 283.613281 91.382812 C 285.183594 92.957031 286.71875 94.566406 288.210938 96.214844 C 289.707031 97.863281 291.160156 99.546875 292.570312 101.265625 C 293.980469 102.988281 295.347656 104.738281 296.675781 106.527344 C 298 108.3125 299.28125 110.132812 300.515625 111.980469 C 301.75 113.832031 302.941406 115.710938 304.085938 117.617188 C 305.230469 119.527344 306.324219 121.460938 307.375 123.421875 C 308.421875 125.382812 309.421875 127.371094 310.375 129.382812 C 311.324219 131.394531 312.226562 133.425781 313.078125 135.480469 C 313.929688 137.535156 314.726562 139.609375 315.476562 141.707031 C 316.226562 143.800781 316.925781 145.910156 317.570312 148.039062 C 318.214844 150.167969 318.808594 152.3125 319.351562 154.46875 C 319.890625 156.628906 320.378906 158.796875 320.8125 160.980469 C 321.246094 163.160156 321.625 165.351562 321.953125 167.554688 C 322.277344 169.753906 322.550781 171.960938 322.769531 174.175781 C 322.988281 176.386719 323.152344 178.605469 323.261719 180.828125 C 323.367188 183.050781 323.421875 185.273438 323.421875 187.496094 Z M 323.421875 187.496094 " fill-opacity="1" fill-rule="nonzero"/></g><path fill="#058789" d="M 187.496094 310.457031 C 119.636719 310.457031 64.535156 255.359375 64.535156 187.496094 C 64.535156 119.636719 119.636719 64.535156 187.496094 64.535156 C 255.359375 64.535156 310.457031 119.636719 310.457031 187.496094 C 310.457031 255.359375 255.359375 310.457031 187.496094 310.457031 Z M 187.496094 67.574219 C 121.257812 67.574219 67.574219 121.257812 67.574219 187.496094 C 67.574219 253.738281 121.460938 307.421875 187.496094 307.421875 C 253.738281 307.421875 307.421875 253.535156 307.421875 187.496094 C 307.421875 121.257812 253.738281 67.574219 187.496094 67.574219 Z M 187.496094 67.574219 " fill-opacity="1" fill-rule="nonzero"/><path fill="#e03f3e" d="M 210.976562 156.40625 C 216.871094 156.40625 221.65625 151.621094 221.65625 145.722656 C 221.65625 139.820312 216.871094 135.035156 210.976562 135.035156 C 205.070312 135.035156 200.292969 139.820312 200.292969 145.722656 C 200.292969 151.621094 205.070312 156.40625 210.976562 156.40625 Z M 210.976562 156.40625 " fill-opacity="1" fill-rule="nonzero"/><g clip-path="url(#f129a6a63f)"><path fill="#e03f3e" d="M 211.714844 107.617188 C 209.855469 107.550781 207.980469 107.609375 206.117188 107.816406 C 231.875 113.621094 231.445312 139.875 227.863281 149.785156 C 227.84375 149.839844 227.820312 149.902344 227.800781 149.957031 C 226.238281 154.21875 223.671875 158.824219 219.664062 161.238281 C 214.265625 164.480469 207.195312 162.652344 202.386719 159.195312 C 189.917969 150.234375 185.898438 131.117188 168.269531 129.203125 C 161.984375 128.523438 157.328125 131.335938 157.328125 131.335938 C 157.328125 131.335938 174.183594 137.570312 186.429688 163.90625 C 195.507812 183.4375 193.605469 205.527344 191.308594 218.140625 C 203.535156 211.625 215.882812 204.539062 225.558594 194.582031 C 235.5625 184.296875 243.152344 171.105469 245.566406 156.863281 C 249.402344 134.253906 236.828125 108.535156 211.714844 107.617188 Z M 211.714844 107.617188 " fill-opacity="1" fill-rule="nonzero"/></g><path fill="#058789" d="M 167.8125 193.757812 C 163.898438 191.84375 160.722656 189.632812 156.210938 185.410156 C 161.796875 195.648438 173.375 203.320312 186.429688 207.359375 C 186.429688 203.4375 185.535156 201.523438 181.910156 199.457031 C 177.507812 196.9375 172.355469 195.984375 167.8125 193.757812 Z M 167.8125 193.757812 " fill-opacity="1" fill-rule="nonzero"/><path fill="#058789" d="M 158.757812 182.320312 C 164.3125 189.207031 172.9375 192.589844 182.476562 195.042969 C 182.476562 189.75 176.964844 187.941406 173.566406 187.53125 C 166.066406 186.632812 158.757812 182.320312 158.757812 182.320312 Z M 158.757812 182.320312 " fill-opacity="1" fill-rule="nonzero"/><g clip-path="url(#6c82f5ae23)"><path fill="#058789" d="M 167.261719 201.351562 C 160.082031 196.375 155.417969 191.832031 153.152344 183.394531 C 152.417969 180.667969 152.183594 177.355469 154.234375 175.40625 C 155.96875 173.75 158.714844 173.761719 161.050781 174.324219 C 163.386719 174.886719 165.652344 175.898438 168.054688 175.917969 C 170.453125 175.929688 174.019531 174.867188 174.300781 172.476562 C 168.789062 166.4375 161.273438 162.257812 153.234375 160.757812 C 151.257812 160.386719 149.335938 160.035156 147.496094 159.523438 C 144.621094 158.734375 141.953125 157.554688 139.597656 155.320312 C 136.363281 152.25 134.324219 148.15625 133.058594 143.933594 C 131.441406 138.539062 130.996094 132.722656 131.683594 127.085938 C 127.148438 135.960938 125.574219 146.722656 127.292969 156.863281 C 129.707031 171.105469 137.296875 184.296875 147.300781 194.585938 C 158.265625 205.867188 172.671875 213.46875 186.429688 220.730469 C 188.484375 209.460938 178.976562 209.460938 167.261719 201.351562 Z M 167.261719 201.351562 " fill-opacity="1" fill-rule="nonzero"/></g><g clip-path="url(#ce8d7899cf)"><path fill="#058789" d="M 224.578125 122.328125 C 220.808594 115.449219 214.503906 110.972656 205.84375 109.019531 L 202.804688 108.335938 C 196.507812 109.613281 190.609375 112.578125 186.429688 117.613281 C 180.304688 110.234375 170.480469 107.277344 161.144531 107.617188 C 148.519531 108.078125 139.070312 114.804688 133.273438 124.25 L 132.910156 127.234375 C 132.234375 132.773438 132.695312 138.425781 134.242188 143.578125 C 135.621094 148.175781 137.707031 151.824219 140.449219 154.421875 C 142.207031 156.089844 144.257812 157.238281 147.003906 158.085938 C 146.261719 155.867188 145.644531 153.609375 145.238281 151.296875 C 144.050781 144.660156 144.648438 137.480469 148.199219 131.742188 C 152.121094 125.402344 159.613281 121.441406 167.066406 121.777344 C 174.511719 122.109375 183.089844 126.605469 186.429688 133.265625 C 189.769531 126.605469 198.347656 122.109375 205.792969 121.777344 C 213.246094 121.441406 220.738281 125.402344 224.660156 131.742188 C 226.769531 135.148438 227.832031 139.066406 228.105469 143.078125 C 228.832031 137.042969 228.300781 129.128906 224.578125 122.328125 Z M 224.578125 122.328125 " fill-opacity="1" fill-rule="nonzero"/></g><g fill="#058789" fill-opacity="1"><g transform="translate(103.820964, 252.87812)"><g><path d="M 18.125 -17.234375 L 18.125 0 L 13.25 0 L 13.25 -6.71875 L 6.59375 -6.71875 L 6.59375 0 L 1.71875 0 L 1.71875 -17.234375 L 6.59375 -17.234375 L 6.59375 -10.765625 L 13.25 -10.765625 L 13.25 -17.234375 Z M 18.125 -17.234375 "/></g></g></g><g fill="#058789" fill-opacity="1"><g transform="translate(123.665162, 252.87812)"><g><path d="M 15.5625 -3.765625 L 15.5625 0 L 1.71875 0 L 1.71875 -17.234375 L 15.25 -17.234375 L 15.25 -13.46875 L 6.546875 -13.46875 L 6.546875 -10.5625 L 14.203125 -10.5625 L 14.203125 -6.921875 L 6.546875 -6.921875 L 6.546875 -3.765625 Z M 15.5625 -3.765625 "/></g></g></g><g fill="#058789" fill-opacity="1"><g transform="translate(140.210207, 252.87812)"><g><path d="M 13.265625 -3.34375 L 5.984375 -3.34375 L 4.625 0 L -0.34375 0 L 7.265625 -17.234375 L 12.0625 -17.234375 L 19.703125 0 L 14.625 0 Z M 11.84375 -6.9375 L 9.625 -12.453125 L 7.40625 -6.9375 Z M 11.84375 -6.9375 "/></g></g></g><g fill="#058789" fill-opacity="1"><g transform="translate(159.561993, 252.87812)"><g><path d="M 1.71875 -17.234375 L 6.59375 -17.234375 L 6.59375 -3.859375 L 14.828125 -3.859375 L 14.828125 0 L 1.71875 0 Z M 1.71875 -17.234375 "/></g></g></g><g fill="#058789" fill-opacity="1"><g transform="translate(174.580555, 252.87812)"><g><path d="M 5.390625 -13.375 L 0.09375 -13.375 L 0.09375 -17.234375 L 15.53125 -17.234375 L 15.53125 -13.375 L 10.265625 -13.375 L 10.265625 0 L 5.390625 0 Z M 5.390625 -13.375 "/></g></g></g><g fill="#058789" fill-opacity="1"><g transform="translate(190.214638, 252.87812)"><g><path d="M 18.125 -17.234375 L 18.125 0 L 13.25 0 L 13.25 -6.71875 L 6.59375 -6.71875 L 6.59375 0 L 1.71875 0 L 1.71875 -17.234375 L 6.59375 -17.234375 L 6.59375 -10.765625 L 13.25 -10.765625 L 13.25 -17.234375 Z M 18.125 -17.234375 "/></g></g></g><g fill="#058789" fill-opacity="1"><g transform="translate(210.058837, 252.87812)"><g/></g></g><g fill="#058789" fill-opacity="1"><g transform="translate(217.223427, 252.87812)"><g><path d="M 5.390625 -13.375 L 0.09375 -13.375 L 0.09375 -17.234375 L 15.53125 -17.234375 L 15.53125 -13.375 L 10.265625 -13.375 L 10.265625 0 L 5.390625 0 Z M 5.390625 -13.375 "/></g></g></g><g fill="#058789" fill-opacity="1"><g transform="translate(232.857509, 252.87812)"><g><path d="M 13.265625 -3.34375 L 5.984375 -3.34375 L 4.625 0 L -0.34375 0 L 7.265625 -17.234375 L 12.0625 -17.234375 L 19.703125 0 L 14.625 0 Z M 11.84375 -6.9375 L 9.625 -12.453125 L 7.40625 -6.9375 Z M 11.84375 -6.9375 "/></g></g></g><g fill="#058789" fill-opacity="1"><g transform="translate(252.209295, 252.87812)"><g><path d="M 13.265625 -8.984375 L 17.578125 -8.984375 L 17.578125 -1.84375 C 16.597656 -1.132812 15.46875 -0.59375 14.1875 -0.21875 C 12.90625 0.15625 11.625 0.34375 10.34375 0.34375 C 8.539062 0.34375 6.914062 -0.0351562 5.46875 -0.796875 C 4.019531 -1.566406 2.882812 -2.628906 2.0625 -3.984375 C 1.25 -5.347656 0.84375 -6.894531 0.84375 -8.625 C 0.84375 -10.34375 1.25 -11.882812 2.0625 -13.25 C 2.882812 -14.613281 4.023438 -15.675781 5.484375 -16.4375 C 6.953125 -17.195312 8.601562 -17.578125 10.4375 -17.578125 C 12.050781 -17.578125 13.5 -17.304688 14.78125 -16.765625 C 16.0625 -16.222656 17.125 -15.445312 17.96875 -14.4375 L 14.875 -11.625 C 13.707031 -12.90625 12.3125 -13.546875 10.6875 -13.546875 C 9.207031 -13.546875 8.015625 -13.097656 7.109375 -12.203125 C 6.210938 -11.304688 5.765625 -10.113281 5.765625 -8.625 C 5.765625 -7.664062 5.96875 -6.8125 6.375 -6.0625 C 6.789062 -5.320312 7.363281 -4.738281 8.09375 -4.3125 C 8.832031 -3.894531 9.679688 -3.6875 10.640625 -3.6875 C 11.578125 -3.6875 12.453125 -3.878906 13.265625 -4.265625 Z M 13.265625 -8.984375 "/></g></g></g></svg>