<svg id="visual" viewBox="0 0 1920 1080" width="1920" height="1080" xmlns="http://www.w3.org/2000/svg" xmlns:xlink="http://www.w3.org/1999/xlink" version="1.1"><rect x="0" y="0" width="1920" height="1080" fill="#c9dbdb"></rect><defs><linearGradient id="grad1_0" x1="43.8%" y1="0%" x2="100%" y2="100%"><stop offset="14.444444444444446%" stop-color="#c9dbdb" stop-opacity="1"></stop><stop offset="85.55555555555554%" stop-color="#c9dbdb" stop-opacity="1"></stop></linearGradient></defs><defs><linearGradient id="grad2_0" x1="0%" y1="0%" x2="56.3%" y2="100%"><stop offset="14.444444444444446%" stop-color="#c9dbdb" stop-opacity="1"></stop><stop offset="85.55555555555554%" stop-color="#c9dbdb" stop-opacity="1"></stop></linearGradient></defs><g transform="translate(1920, 0)"><path d="M0 810C-87.4 745.2 -174.8 680.3 -265.2 640.2C-355.6 600.2 -449 584.8 -536 536C-623 487.2 -703.7 404.9 -748.3 310C-793 215.1 -801.5 107.5 -810 0L0 0Z" fill="#04848c"></path></g><g transform="translate(0, 1080)"><path d="M0 -810C115.9 -805.6 231.8 -801.1 307.3 -741.9C382.8 -682.6 417.8 -568.5 494.3 -494.3C570.8 -420 688.8 -385.7 748.3 -310C807.9 -234.2 808.9 -117.1 810 0L0 0Z" fill="#04848c"></path></g></svg>