<?xml version="1.0" encoding="UTF-8" standalone="no"?>
<!DOCTYPE svg PUBLIC "-//W3C//DTD SVG 1.1//EN" "http://www.w3.org/Graphics/SVG/1.1/DTD/svg11.dtd">
<svg xmlns="http://www.w3.org/2000/svg" version="1.1" viewBox="0.00 0.00 366.00 368.00">
<g stroke-width="2.00" fill="none" stroke-linecap="butt">
<path stroke="#82c3c4" vector-effect="non-scaling-stroke" d="
  M 346.49 182.78
  A 163.70 163.70 0.0 0 0 182.79 19.08
  A 163.70 163.70 0.0 0 0 19.09 182.78
  A 163.70 163.70 0.0 0 0 182.79 346.48
  A 163.70 163.70 0.0 0 0 346.49 182.78"
/>
<path stroke="#82c3c4" vector-effect="non-scaling-stroke" d="
  M 342.45 182.77
  A 159.66 159.66 0.0 0 0 182.79 23.11
  A 159.66 159.66 0.0 0 0 23.13 182.77
  A 159.66 159.66 0.0 0 0 182.79 342.43
  A 159.66 159.66 0.0 0 0 342.45 182.77"
/>
<path stroke="#82c3c4" vector-effect="non-scaling-stroke" d="
  M 181.92 89.29
  A 0.53 0.53 0.0 0 1 181.13 89.30
  Q 173.09 80.59 161.46 77.85
  C 142.44 73.36 123.45 79.92 112.34 96.19
  Q 110.76 98.51 110.39 101.35
  C 108.64 114.84 111.81 138.74 128.06 143.28
  A 0.55 0.55 0.0 0 0 128.73 142.56
  C 123.23 127.49 125.02 109.07 139.35 99.89
  C 153.73 90.67 172.05 96.32 181.21 109.82
  A 0.45 0.44 -46.3 0 0 181.95 109.80
  C 188.35 99.66 201.67 93.52 213.36 95.75
  C 226.38 98.23 235.33 108.27 236.66 121.66
  Q 236.67 121.76 236.77 121.74
  Q 236.87 121.73 237.03 121.75
  Q 237.09 121.76 237.09 121.70
  C 239.27 99.79 228.13 83.21 206.47 78.11
  Q 203.44 77.39 200.55 78.11
  Q 189.55 80.82 181.92 89.29"
/>
<path stroke="#f09f9e" vector-effect="non-scaling-stroke" d="
  M 214.63 207.89
  C 245.42 187.35 271.32 147.19 257.39 109.34
  C 249.75 88.60 233.18 75.33 210.00 76.70
  Q 207.73 76.83 209.93 77.41
  C 234.51 83.76 243.77 108.45 237.06 131.50
  C 234.99 138.61 229.79 147.05 222.41 149.31
  C 209.90 153.13 197.93 142.54 191.31 133.44
  Q 184.07 123.49 180.06 118.47
  C 171.24 107.42 157.32 101.58 143.61 107.44
  A 0.44 0.44 0.0 0 0 143.57 108.23
  C 162.64 118.37 176.17 137.34 183.79 157.01
  C 191.79 177.65 191.93 200.94 188.19 222.52
  A 0.47 0.47 0.0 0 0 188.87 223.02
  Q 202.33 216.10 214.63 207.89"
/>
<path stroke="#82c3c4" vector-effect="non-scaling-stroke" d="
  M 137.01 177.02
  C 134.99 169.30 138.67 162.62 147.50 165.23
  C 153.39 166.97 159.82 169.18 164.88 164.29
  A 1.36 1.35 -43.6 0 0 164.93 162.39
  Q 155.76 152.63 142.96 148.62
  C 134.04 145.83 125.33 146.31 118.33 139.18
  C 110.07 130.77 107.25 115.88 108.39 104.48
  Q 108.44 104.01 108.15 103.82
  A 0.32 0.31 -61.7 0 0 107.69 103.96
  C 93.80 135.31 106.86 169.24 129.60 192.41
  C 143.14 206.20 161.92 216.97 179.36 225.83
  Q 182.35 227.35 181.95 224.02
  L 181.48 219.98
  A 7.88 7.86 -75.1 0 0 178.37 214.60
  C 172.04 209.89 164.86 206.71 158.17 202.53
  C 148.08 196.24 140.13 188.91 137.01 177.02"
/>
<path stroke="#f09f9e" vector-effect="non-scaling-stroke" d="
  M 228.38 127.17
  A 14.17 14.17 0.0 0 0 214.21 113.00
  A 14.17 14.17 0.0 0 0 200.04 127.17
  A 14.17 14.17 0.0 0 0 214.21 141.34
  A 14.17 14.17 0.0 0 0 228.38 127.17"
/>
<path stroke="#82c3c4" vector-effect="non-scaling-stroke" d="
  M 146.16 177.64
  C 154.00 185.62 165.05 190.19 175.69 192.60
  A 0.49 0.49 0.0 0 0 176.28 192.02
  C 174.69 184.33 168.29 183.59 161.88 182.31
  C 156.37 181.22 151.31 179.41 146.66 176.96
  Q 144.25 175.69 146.16 177.64"
/>
<path stroke="#82c3c4" vector-effect="non-scaling-stroke" d="
  M 179.11 208.53
  Q 182.22 209.70 181.40 206.48
  L 180.73 203.86
  A 6.23 6.23 0.0 0 0 177.70 199.95
  C 167.78 194.50 157.06 192.67 147.76 185.61
  C 146.52 184.67 144.46 182.60 142.62 181.35
  A 0.28 0.28 0.0 0 0 142.23 181.73
  C 149.86 194.18 163.17 202.51 179.11 208.53"
/>
<path stroke="#82c3c4" vector-effect="non-scaling-stroke" d="
  M 286.46 264.41
  C 281.35 266.42 275.94 262.91 276.96 257.43
  C 277.98 251.99 284.40 250.16 288.40 253.85
  Q 289.13 254.52 289.87 253.85
  L 292.50 251.44
  Q 293.28 250.73 292.50 250.02
  C 287.06 245.06 278.18 245.48 273.06 250.82
  C 268.02 256.06 270.26 266.52 277.24 269.34
  Q 284.82 272.40 292.31 267.71
  Q 292.73 267.45 292.73 266.95
  L 292.73 258.50
  Q 292.73 258.02 292.25 258.01
  L 287.33 257.96
  Q 286.87 257.96 286.87 258.42
  L 286.94 263.69
  Q 286.94 264.21 286.46 264.41"
/>
<path stroke="#82c3c4" vector-effect="non-scaling-stroke" d="
  M 106.74 252.52
  A 0.48 0.48 0.0 0 1 107.22 252.04
  L 117.81 252.02
  A 0.48 0.48 0.0 0 0 118.29 251.55
  L 118.35 247.46
  A 0.48 0.48 0.0 0 0 117.87 246.97
  L 100.75 246.99
  A 0.48 0.48 0.0 0 0 100.27 247.47
  L 100.28 269.54
  A 0.48 0.48 0.0 0 0 100.76 270.02
  L 118.26 270.01
  A 0.48 0.48 0.0 0 0 118.74 269.54
  L 118.82 265.45
  A 0.48 0.48 0.0 0 0 118.34 264.96
  L 107.22 264.98
  A 0.48 0.48 0.0 0 1 106.74 264.50
  L 106.77 261.30
  A 0.48 0.48 0.0 0 1 107.25 260.82
  L 116.56 260.87
  A 0.48 0.48 0.0 0 0 117.04 260.39
  L 117.02 256.41
  A 0.48 0.48 0.0 0 0 116.54 255.93
  L 107.22 255.96
  A 0.48 0.48 0.0 0 1 106.74 255.48
  L 106.74 252.52"
/>
<path stroke="#82c3c4" vector-effect="non-scaling-stroke" d="
  M 80.28 261.50
  A 0.46 0.46 0.0 0 1 80.74 261.04
  L 88.73 261.04
  A 0.46 0.46 0.0 0 1 89.19 261.50
  L 89.10 269.55
  A 0.46 0.46 0.0 0 0 89.57 270.02
  L 95.26 270.00
  A 0.46 0.46 0.0 0 0 95.72 269.54
  L 95.71 247.46
  A 0.46 0.46 0.0 0 0 95.25 247.00
  L 89.60 246.99
  A 0.46 0.46 0.0 0 0 89.14 247.45
  L 89.11 255.21
  A 0.46 0.46 0.0 0 1 88.65 255.67
  L 80.73 255.69
  A 0.46 0.46 0.0 0 1 80.27 255.23
  L 80.31 247.44
  A 0.46 0.46 0.0 0 0 79.85 246.98
  L 74.24 246.98
  A 0.46 0.46 0.0 0 0 73.78 247.44
  L 73.79 269.62
  A 0.46 0.46 0.0 0 0 74.26 270.08
  L 79.85 269.98
  A 0.46 0.46 0.0 0 0 80.30 269.52
  L 80.28 261.50"
/>
<path stroke="#82c3c4" vector-effect="non-scaling-stroke" d="
  M 137.86 266.04
  L 139.02 268.99
  Q 139.42 270.00 140.50 270.01
  L 145.25 270.05
  Q 146.34 270.06 145.89 269.06
  Q 141.26 258.76 137.00 248.41
  Q 136.42 247.00 135.01 246.93
  Q 132.58 246.81 130.06 247.13
  Q 129.58 247.19 129.38 247.63
  L 120.00 268.98
  Q 119.52 270.09 120.73 270.07
  L 124.94 269.99
  Q 126.21 269.97 126.68 268.79
  L 127.81 266.02
  A 0.81 0.80 10.7 0 1 128.56 265.51
  L 137.10 265.52
  A 0.82 0.81 -10.5 0 1 137.86 266.04"
/>
<path stroke="#82c3c4" vector-effect="non-scaling-stroke" d="
  M 155.03 264.85
  A 0.50 0.50 0.0 0 1 154.53 264.35
  L 154.55 247.52
  A 0.50 0.50 0.0 0 0 154.05 247.01
  L 148.52 246.96
  A 0.50 0.50 0.0 0 0 148.01 247.46
  L 148.01 269.51
  A 0.50 0.50 0.0 0 0 148.51 270.01
  L 165.05 270.00
  A 0.50 0.50 0.0 0 0 165.55 269.50
  L 165.53 265.28
  A 0.50 0.50 0.0 0 0 165.03 264.78
  L 155.03 264.85"
/>
<path stroke="#82c3c4" vector-effect="non-scaling-stroke" d="
  M 179.48 252.67
  A 0.45 0.45 0.0 0 1 179.93 252.22
  L 186.04 252.22
  A 0.45 0.45 0.0 0 0 186.49 251.77
  L 186.52 247.44
  A 0.45 0.45 0.0 0 0 186.07 246.99
  L 166.36 247.00
  A 0.45 0.45 0.0 0 0 165.91 247.45
  L 165.87 251.79
  A 0.45 0.45 0.0 0 0 166.33 252.24
  L 172.50 252.17
  A 0.45 0.45 0.0 0 1 172.96 252.62
  L 172.98 269.59
  A 0.45 0.45 0.0 0 0 173.44 270.04
  L 179.06 269.98
  A 0.45 0.45 0.0 0 0 179.50 269.52
  L 179.48 252.67"
/>
<path stroke="#82c3c4" vector-effect="non-scaling-stroke" d="
  M 204.36 255.16
  A 0.51 0.51 0.0 0 1 203.85 255.67
  L 196.05 255.65
  A 0.51 0.51 0.0 0 1 195.54 255.14
  L 195.60 247.52
  A 0.51 0.51 0.0 0 0 195.09 247.01
  L 189.51 246.97
  A 0.51 0.51 0.0 0 0 189.00 247.48
  L 189.02 269.54
  A 0.51 0.51 0.0 0 0 189.54 270.05
  L 195.07 269.98
  A 0.51 0.51 0.0 0 0 195.58 269.46
  L 195.54 261.54
  A 0.51 0.51 0.0 0 1 196.05 261.03
  L 203.86 261.02
  A 0.51 0.51 0.0 0 1 204.37 261.53
  L 204.42 269.51
  A 0.51 0.51 0.0 0 0 204.93 270.02
  L 210.49 269.98
  A 0.51 0.51 0.0 0 0 211.00 269.47
  L 210.94 247.52
  A 0.51 0.51 0.0 0 0 210.43 247.01
  L 204.94 246.98
  A 0.51 0.51 0.0 0 0 204.43 247.49
  L 204.36 255.16"
/>
<path stroke="#82c3c4" vector-effect="non-scaling-stroke" d="
  M 236.47 252.71
  A 0.50 0.50 0.0 0 1 236.97 252.21
  L 243.00 252.21
  A 0.50 0.50 0.0 0 0 243.50 251.71
  L 243.51 247.50
  A 0.50 0.50 0.0 0 0 243.01 247.00
  L 223.36 247.00
  A 0.50 0.50 0.0 0 0 222.86 247.50
  L 222.90 251.75
  A 0.50 0.50 0.0 0 0 223.40 252.24
  L 229.45 252.16
  A 0.50 0.50 0.0 0 1 229.96 252.66
  L 229.98 269.58
  A 0.50 0.50 0.0 0 0 230.49 270.08
  L 236.01 269.97
  A 0.50 0.50 0.0 0 0 236.50 269.47
  L 236.47 252.71"
/>
<path stroke="#82c3c4" vector-effect="non-scaling-stroke" d="
  M 251.42 265.74
  A 0.39 0.39 0.0 0 1 251.78 265.50
  L 260.98 265.52
  A 0.39 0.39 0.0 0 1 261.34 265.77
  L 262.84 269.77
  A 0.39 0.39 0.0 0 0 263.20 270.02
  L 269.19 270.01
  A 0.39 0.39 0.0 0 0 269.55 269.46
  L 259.67 247.22
  A 0.39 0.39 0.0 0 0 259.32 246.99
  L 253.42 247.00
  A 0.39 0.39 0.0 0 0 253.07 247.23
  L 243.29 269.46
  A 0.39 0.39 0.0 0 0 243.65 270.01
  L 249.39 270.01
  A 0.39 0.39 0.0 0 0 249.75 269.77
  L 251.42 265.74"
/>
<path stroke="#82c3c4" vector-effect="non-scaling-stroke" d="
  M 130.09 260.20
  A 0.39 0.39 0.0 0 0 130.45 260.74
  L 135.15 260.77
  A 0.39 0.39 0.0 0 0 135.52 260.24
  L 133.21 254.31
  A 0.39 0.39 0.0 0 0 132.49 254.30
  L 130.09 260.20"
/>
<path stroke="#82c3c4" vector-effect="non-scaling-stroke" d="
  M 253.54 260.28
  A 0.34 0.34 0.0 0 0 253.85 260.75
  L 258.78 260.75
  A 0.34 0.34 0.0 0 0 259.10 260.29
  L 256.64 254.23
  A 0.34 0.34 0.0 0 0 256.01 254.23
  L 253.54 260.28"
/>
</g>
<path fill="#ffffff" d="
  M 363.57 182.77
  A 180.78 180.78 0.0 0 1 182.79 363.55
  A 180.78 180.78 0.0 0 1 2.01 182.77
  A 180.78 180.78 0.0 0 1 182.79 1.99
  A 180.78 180.78 0.0 0 1 363.57 182.77
  Z
  M 346.49 182.78
  A 163.70 163.70 0.0 0 0 182.79 19.08
  A 163.70 163.70 0.0 0 0 19.09 182.78
  A 163.70 163.70 0.0 0 0 182.79 346.48
  A 163.70 163.70 0.0 0 0 346.49 182.78
  Z"
/>
<path fill="#058689" d="
  M 346.49 182.78
  A 163.70 163.70 0.0 0 1 182.79 346.48
  A 163.70 163.70 0.0 0 1 19.09 182.78
  A 163.70 163.70 0.0 0 1 182.79 19.08
  A 163.70 163.70 0.0 0 1 346.49 182.78
  Z
  M 342.45 182.77
  A 159.66 159.66 0.0 0 0 182.79 23.11
  A 159.66 159.66 0.0 0 0 23.13 182.77
  A 159.66 159.66 0.0 0 0 182.79 342.43
  A 159.66 159.66 0.0 0 0 342.45 182.77
  Z"
/>
<path fill="#ffffff" d="
  M 342.45 182.77
  A 159.66 159.66 0.0 0 1 182.79 342.43
  A 159.66 159.66 0.0 0 1 23.13 182.77
  A 159.66 159.66 0.0 0 1 182.79 23.11
  A 159.66 159.66 0.0 0 1 342.45 182.77
  Z
  M 181.92 89.29
  A 0.53 0.53 0.0 0 1 181.13 89.30
  Q 173.09 80.59 161.46 77.85
  C 142.44 73.36 123.45 79.92 112.34 96.19
  Q 110.76 98.51 110.39 101.35
  C 108.64 114.84 111.81 138.74 128.06 143.28
  A 0.55 0.55 0.0 0 0 128.73 142.56
  C 123.23 127.49 125.02 109.07 139.35 99.89
  C 153.73 90.67 172.05 96.32 181.21 109.82
  A 0.45 0.44 -46.3 0 0 181.95 109.80
  C 188.35 99.66 201.67 93.52 213.36 95.75
  C 226.38 98.23 235.33 108.27 236.66 121.66
  Q 236.67 121.76 236.77 121.74
  Q 236.87 121.73 237.03 121.75
  Q 237.09 121.76 237.09 121.70
  C 239.27 99.79 228.13 83.21 206.47 78.11
  Q 203.44 77.39 200.55 78.11
  Q 189.55 80.82 181.92 89.29
  Z
  M 214.63 207.89
  C 245.42 187.35 271.32 147.19 257.39 109.34
  C 249.75 88.60 233.18 75.33 210.00 76.70
  Q 207.73 76.83 209.93 77.41
  C 234.51 83.76 243.77 108.45 237.06 131.50
  C 234.99 138.61 229.79 147.05 222.41 149.31
  C 209.90 153.13 197.93 142.54 191.31 133.44
  Q 184.07 123.49 180.06 118.47
  C 171.24 107.42 157.32 101.58 143.61 107.44
  A 0.44 0.44 0.0 0 0 143.57 108.23
  C 162.64 118.37 176.17 137.34 183.79 157.01
  C 191.79 177.65 191.93 200.94 188.19 222.52
  A 0.47 0.47 0.0 0 0 188.87 223.02
  Q 202.33 216.10 214.63 207.89
  Z
  M 137.01 177.02
  C 134.99 169.30 138.67 162.62 147.50 165.23
  C 153.39 166.97 159.82 169.18 164.88 164.29
  A 1.36 1.35 -43.6 0 0 164.93 162.39
  Q 155.76 152.63 142.96 148.62
  C 134.04 145.83 125.33 146.31 118.33 139.18
  C 110.07 130.77 107.25 115.88 108.39 104.48
  Q 108.44 104.01 108.15 103.82
  A 0.32 0.31 -61.7 0 0 107.69 103.96
  C 93.80 135.31 106.86 169.24 129.60 192.41
  C 143.14 206.20 161.92 216.97 179.36 225.83
  Q 182.35 227.35 181.95 224.02
  L 181.48 219.98
  A 7.88 7.86 -75.1 0 0 178.37 214.60
  C 172.04 209.89 164.86 206.71 158.17 202.53
  C 148.08 196.24 140.13 188.91 137.01 177.02
  Z
  M 228.38 127.17
  A 14.17 14.17 0.0 0 0 214.21 113.00
  A 14.17 14.17 0.0 0 0 200.04 127.17
  A 14.17 14.17 0.0 0 0 214.21 141.34
  A 14.17 14.17 0.0 0 0 228.38 127.17
  Z
  M 146.16 177.64
  C 154.00 185.62 165.05 190.19 175.69 192.60
  A 0.49 0.49 0.0 0 0 176.28 192.02
  C 174.69 184.33 168.29 183.59 161.88 182.31
  C 156.37 181.22 151.31 179.41 146.66 176.96
  Q 144.25 175.69 146.16 177.64
  Z
  M 179.11 208.53
  Q 182.22 209.70 181.40 206.48
  L 180.73 203.86
  A 6.23 6.23 0.0 0 0 177.70 199.95
  C 167.78 194.50 157.06 192.67 147.76 185.61
  C 146.52 184.67 144.46 182.60 142.62 181.35
  A 0.28 0.28 0.0 0 0 142.23 181.73
  C 149.86 194.18 163.17 202.51 179.11 208.53
  Z
  M 286.46 264.41
  C 281.35 266.42 275.94 262.91 276.96 257.43
  C 277.98 251.99 284.40 250.16 288.40 253.85
  Q 289.13 254.52 289.87 253.85
  L 292.50 251.44
  Q 293.28 250.73 292.50 250.02
  C 287.06 245.06 278.18 245.48 273.06 250.82
  C 268.02 256.06 270.26 266.52 277.24 269.34
  Q 284.82 272.40 292.31 267.71
  Q 292.73 267.45 292.73 266.95
  L 292.73 258.50
  Q 292.73 258.02 292.25 258.01
  L 287.33 257.96
  Q 286.87 257.96 286.87 258.42
  L 286.94 263.69
  Q 286.94 264.21 286.46 264.41
  Z
  M 106.74 252.52
  A 0.48 0.48 0.0 0 1 107.22 252.04
  L 117.81 252.02
  A 0.48 0.48 0.0 0 0 118.29 251.55
  L 118.35 247.46
  A 0.48 0.48 0.0 0 0 117.87 246.97
  L 100.75 246.99
  A 0.48 0.48 0.0 0 0 100.27 247.47
  L 100.28 269.54
  A 0.48 0.48 0.0 0 0 100.76 270.02
  L 118.26 270.01
  A 0.48 0.48 0.0 0 0 118.74 269.54
  L 118.82 265.45
  A 0.48 0.48 0.0 0 0 118.34 264.96
  L 107.22 264.98
  A 0.48 0.48 0.0 0 1 106.74 264.50
  L 106.77 261.30
  A 0.48 0.48 0.0 0 1 107.25 260.82
  L 116.56 260.87
  A 0.48 0.48 0.0 0 0 117.04 260.39
  L 117.02 256.41
  A 0.48 0.48 0.0 0 0 116.54 255.93
  L 107.22 255.96
  A 0.48 0.48 0.0 0 1 106.74 255.48
  L 106.74 252.52
  Z
  M 80.28 261.50
  A 0.46 0.46 0.0 0 1 80.74 261.04
  L 88.73 261.04
  A 0.46 0.46 0.0 0 1 89.19 261.50
  L 89.10 269.55
  A 0.46 0.46 0.0 0 0 89.57 270.02
  L 95.26 270.00
  A 0.46 0.46 0.0 0 0 95.72 269.54
  L 95.71 247.46
  A 0.46 0.46 0.0 0 0 95.25 247.00
  L 89.60 246.99
  A 0.46 0.46 0.0 0 0 89.14 247.45
  L 89.11 255.21
  A 0.46 0.46 0.0 0 1 88.65 255.67
  L 80.73 255.69
  A 0.46 0.46 0.0 0 1 80.27 255.23
  L 80.31 247.44
  A 0.46 0.46 0.0 0 0 79.85 246.98
  L 74.24 246.98
  A 0.46 0.46 0.0 0 0 73.78 247.44
  L 73.79 269.62
  A 0.46 0.46 0.0 0 0 74.26 270.08
  L 79.85 269.98
  A 0.46 0.46 0.0 0 0 80.30 269.52
  L 80.28 261.50
  Z
  M 137.86 266.04
  L 139.02 268.99
  Q 139.42 270.00 140.50 270.01
  L 145.25 270.05
  Q 146.34 270.06 145.89 269.06
  Q 141.26 258.76 137.00 248.41
  Q 136.42 247.00 135.01 246.93
  Q 132.58 246.81 130.06 247.13
  Q 129.58 247.19 129.38 247.63
  L 120.00 268.98
  Q 119.52 270.09 120.73 270.07
  L 124.94 269.99
  Q 126.21 269.97 126.68 268.79
  L 127.81 266.02
  A 0.81 0.80 10.7 0 1 128.56 265.51
  L 137.10 265.52
  A 0.82 0.81 -10.5 0 1 137.86 266.04
  Z
  M 155.03 264.85
  A 0.50 0.50 0.0 0 1 154.53 264.35
  L 154.55 247.52
  A 0.50 0.50 0.0 0 0 154.05 247.01
  L 148.52 246.96
  A 0.50 0.50 0.0 0 0 148.01 247.46
  L 148.01 269.51
  A 0.50 0.50 0.0 0 0 148.51 270.01
  L 165.05 270.00
  A 0.50 0.50 0.0 0 0 165.55 269.50
  L 165.53 265.28
  A 0.50 0.50 0.0 0 0 165.03 264.78
  L 155.03 264.85
  Z
  M 179.48 252.67
  A 0.45 0.45 0.0 0 1 179.93 252.22
  L 186.04 252.22
  A 0.45 0.45 0.0 0 0 186.49 251.77
  L 186.52 247.44
  A 0.45 0.45 0.0 0 0 186.07 246.99
  L 166.36 247.00
  A 0.45 0.45 0.0 0 0 165.91 247.45
  L 165.87 251.79
  A 0.45 0.45 0.0 0 0 166.33 252.24
  L 172.50 252.17
  A 0.45 0.45 0.0 0 1 172.96 252.62
  L 172.98 269.59
  A 0.45 0.45 0.0 0 0 173.44 270.04
  L 179.06 269.98
  A 0.45 0.45 0.0 0 0 179.50 269.52
  L 179.48 252.67
  Z
  M 204.36 255.16
  A 0.51 0.51 0.0 0 1 203.85 255.67
  L 196.05 255.65
  A 0.51 0.51 0.0 0 1 195.54 255.14
  L 195.60 247.52
  A 0.51 0.51 0.0 0 0 195.09 247.01
  L 189.51 246.97
  A 0.51 0.51 0.0 0 0 189.00 247.48
  L 189.02 269.54
  A 0.51 0.51 0.0 0 0 189.54 270.05
  L 195.07 269.98
  A 0.51 0.51 0.0 0 0 195.58 269.46
  L 195.54 261.54
  A 0.51 0.51 0.0 0 1 196.05 261.03
  L 203.86 261.02
  A 0.51 0.51 0.0 0 1 204.37 261.53
  L 204.42 269.51
  A 0.51 0.51 0.0 0 0 204.93 270.02
  L 210.49 269.98
  A 0.51 0.51 0.0 0 0 211.00 269.47
  L 210.94 247.52
  A 0.51 0.51 0.0 0 0 210.43 247.01
  L 204.94 246.98
  A 0.51 0.51 0.0 0 0 204.43 247.49
  L 204.36 255.16
  Z
  M 236.47 252.71
  A 0.50 0.50 0.0 0 1 236.97 252.21
  L 243.00 252.21
  A 0.50 0.50 0.0 0 0 243.50 251.71
  L 243.51 247.50
  A 0.50 0.50 0.0 0 0 243.01 247.00
  L 223.36 247.00
  A 0.50 0.50 0.0 0 0 222.86 247.50
  L 222.90 251.75
  A 0.50 0.50 0.0 0 0 223.40 252.24
  L 229.45 252.16
  A 0.50 0.50 0.0 0 1 229.96 252.66
  L 229.98 269.58
  A 0.50 0.50 0.0 0 0 230.49 270.08
  L 236.01 269.97
  A 0.50 0.50 0.0 0 0 236.50 269.47
  L 236.47 252.71
  Z
  M 251.42 265.74
  A 0.39 0.39 0.0 0 1 251.78 265.50
  L 260.98 265.52
  A 0.39 0.39 0.0 0 1 261.34 265.77
  L 262.84 269.77
  A 0.39 0.39 0.0 0 0 263.20 270.02
  L 269.19 270.01
  A 0.39 0.39 0.0 0 0 269.55 269.46
  L 259.67 247.22
  A 0.39 0.39 0.0 0 0 259.32 246.99
  L 253.42 247.00
  A 0.39 0.39 0.0 0 0 253.07 247.23
  L 243.29 269.46
  A 0.39 0.39 0.0 0 0 243.65 270.01
  L 249.39 270.01
  A 0.39 0.39 0.0 0 0 249.75 269.77
  L 251.42 265.74
  Z"
/>
<path fill="#058689" d="
  M 181.92 89.29
  Q 189.55 80.82 200.55 78.11
  Q 203.44 77.39 206.47 78.11
  C 228.13 83.21 239.27 99.79 237.09 121.70
  Q 237.09 121.76 237.03 121.75
  Q 236.87 121.73 236.77 121.74
  Q 236.67 121.76 236.66 121.66
  C 235.33 108.27 226.38 98.23 213.36 95.75
  C 201.67 93.52 188.35 99.66 181.95 109.80
  A 0.45 0.44 -46.3 0 1 181.21 109.82
  C 172.05 96.32 153.73 90.67 139.35 99.89
  C 125.02 109.07 123.23 127.49 128.73 142.56
  A 0.55 0.55 0.0 0 1 128.06 143.28
  C 111.81 138.74 108.64 114.84 110.39 101.35
  Q 110.76 98.51 112.34 96.19
  C 123.45 79.92 142.44 73.36 161.46 77.85
  Q 173.09 80.59 181.13 89.30
  A 0.53 0.53 0.0 0 0 181.92 89.29
  Z"
/>
<path fill="#e13f3d" d="
  M 257.39 109.34
  C 271.32 147.19 245.42 187.35 214.63 207.89
  Q 202.33 216.10 188.87 223.02
  A 0.47 0.47 0.0 0 1 188.19 222.52
  C 191.93 200.94 191.79 177.65 183.79 157.01
  C 176.17 137.34 162.64 118.37 143.57 108.23
  A 0.44 0.44 0.0 0 1 143.61 107.44
  C 157.32 101.58 171.24 107.42 180.06 118.47
  Q 184.07 123.49 191.31 133.44
  C 197.93 142.54 209.90 153.13 222.41 149.31
  C 229.79 147.05 234.99 138.61 237.06 131.50
  C 243.77 108.45 234.51 83.76 209.93 77.41
  Q 207.73 76.83 210.00 76.70
  C 233.18 75.33 249.75 88.60 257.39 109.34
  Z"
/>
<path fill="#058689" d="
  M 147.50 165.23
  C 138.67 162.62 134.99 169.30 137.01 177.02
  C 140.13 188.91 148.08 196.24 158.17 202.53
  C 164.86 206.71 172.04 209.89 178.37 214.60
  A 7.88 7.86 -75.1 0 1 181.48 219.98
  L 181.95 224.02
  Q 182.35 227.35 179.36 225.83
  C 161.92 216.97 143.14 206.20 129.60 192.41
  C 106.86 169.24 93.80 135.31 107.69 103.96
  A 0.32 0.31 -61.7 0 1 108.15 103.82
  Q 108.44 104.01 108.39 104.48
  C 107.25 115.88 110.07 130.77 118.33 139.18
  C 125.33 146.31 134.04 145.83 142.96 148.62
  Q 155.76 152.63 164.93 162.39
  A 1.36 1.35 -43.6 0 1 164.88 164.29
  C 159.82 169.18 153.39 166.97 147.50 165.23
  Z"
/>
<circle fill="#e13f3d" cx="214.21" cy="127.17" r="14.17"/>
<path fill="#058689" d="
  M 175.69 192.60
  C 165.05 190.19 154.00 185.62 146.16 177.64
  Q 144.25 175.69 146.66 176.96
  C 151.31 179.41 156.37 181.22 161.88 182.31
  C 168.29 183.59 174.69 184.33 176.28 192.02
  A 0.49 0.49 0.0 0 1 175.69 192.60
  Z"
/>
<path fill="#058689" d="
  M 179.11 208.53
  C 163.17 202.51 149.86 194.18 142.23 181.73
  A 0.28 0.28 0.0 0 1 142.62 181.35
  C 144.46 182.60 146.52 184.67 147.76 185.61
  C 157.06 192.67 167.78 194.50 177.70 199.95
  A 6.23 6.23 0.0 0 1 180.73 203.86
  L 181.40 206.48
  Q 182.22 209.70 179.11 208.53
  Z"
/>
<path fill="#058689" d="
  M 286.94 263.69
  L 286.87 258.42
  Q 286.87 257.96 287.33 257.96
  L 292.25 258.01
  Q 292.73 258.02 292.73 258.50
  L 292.73 266.95
  Q 292.73 267.45 292.31 267.71
  Q 284.82 272.40 277.24 269.34
  C 270.26 266.52 268.02 256.06 273.06 250.82
  C 278.18 245.48 287.06 245.06 292.50 250.02
  Q 293.28 250.73 292.50 251.44
  L 289.87 253.85
  Q 289.13 254.52 288.40 253.85
  C 284.40 250.16 277.98 251.99 276.96 257.43
  C 275.94 262.91 281.35 266.42 286.46 264.41
  Q 286.94 264.21 286.94 263.69
  Z"
/>
<path fill="#058689" d="
  M 106.74 252.52
  L 106.74 255.48
  A 0.48 0.48 0.0 0 0 107.22 255.96
  L 116.54 255.93
  A 0.48 0.48 0.0 0 1 117.02 256.41
  L 117.04 260.39
  A 0.48 0.48 0.0 0 1 116.56 260.87
  L 107.25 260.82
  A 0.48 0.48 0.0 0 0 106.77 261.30
  L 106.74 264.50
  A 0.48 0.48 0.0 0 0 107.22 264.98
  L 118.34 264.96
  A 0.48 0.48 0.0 0 1 118.82 265.45
  L 118.74 269.54
  A 0.48 0.48 0.0 0 1 118.26 270.01
  L 100.76 270.02
  A 0.48 0.48 0.0 0 1 100.28 269.54
  L 100.27 247.47
  A 0.48 0.48 0.0 0 1 100.75 246.99
  L 117.87 246.97
  A 0.48 0.48 0.0 0 1 118.35 247.46
  L 118.29 251.55
  A 0.48 0.48 0.0 0 1 117.81 252.02
  L 107.22 252.04
  A 0.48 0.48 0.0 0 0 106.74 252.52
  Z"
/>
<path fill="#058689" d="
  M 80.28 261.50
  L 80.30 269.52
  A 0.46 0.46 0.0 0 1 79.85 269.98
  L 74.26 270.08
  A 0.46 0.46 0.0 0 1 73.79 269.62
  L 73.78 247.44
  A 0.46 0.46 0.0 0 1 74.24 246.98
  L 79.85 246.98
  A 0.46 0.46 0.0 0 1 80.31 247.44
  L 80.27 255.23
  A 0.46 0.46 0.0 0 0 80.73 255.69
  L 88.65 255.67
  A 0.46 0.46 0.0 0 0 89.11 255.21
  L 89.14 247.45
  A 0.46 0.46 0.0 0 1 89.60 246.99
  L 95.25 247.00
  A 0.46 0.46 0.0 0 1 95.71 247.46
  L 95.72 269.54
  A 0.46 0.46 0.0 0 1 95.26 270.00
  L 89.57 270.02
  A 0.46 0.46 0.0 0 1 89.10 269.55
  L 89.19 261.50
  A 0.46 0.46 0.0 0 0 88.73 261.04
  L 80.74 261.04
  A 0.46 0.46 0.0 0 0 80.28 261.50
  Z"
/>
<path fill="#058689" d="
  M 137.10 265.52
  L 128.56 265.51
  A 0.81 0.80 10.7 0 0 127.81 266.02
  L 126.68 268.79
  Q 126.21 269.97 124.94 269.99
  L 120.73 270.07
  Q 119.52 270.09 120.00 268.98
  L 129.38 247.63
  Q 129.58 247.19 130.06 247.13
  Q 132.58 246.81 135.01 246.93
  Q 136.42 247.00 137.00 248.41
  Q 141.26 258.76 145.89 269.06
  Q 146.34 270.06 145.25 270.05
  L 140.50 270.01
  Q 139.42 270.00 139.02 268.99
  L 137.86 266.04
  A 0.82 0.81 -10.5 0 0 137.10 265.52
  Z
  M 130.09 260.20
  A 0.39 0.39 0.0 0 0 130.45 260.74
  L 135.15 260.77
  A 0.39 0.39 0.0 0 0 135.52 260.24
  L 133.21 254.31
  A 0.39 0.39 0.0 0 0 132.49 254.30
  L 130.09 260.20
  Z"
/>
<path fill="#058689" d="
  M 155.03 264.85
  L 165.03 264.78
  A 0.50 0.50 0.0 0 1 165.53 265.28
  L 165.55 269.50
  A 0.50 0.50 0.0 0 1 165.05 270.00
  L 148.51 270.01
  A 0.50 0.50 0.0 0 1 148.01 269.51
  L 148.01 247.46
  A 0.50 0.50 0.0 0 1 148.52 246.96
  L 154.05 247.01
  A 0.50 0.50 0.0 0 1 154.55 247.52
  L 154.53 264.35
  A 0.50 0.50 0.0 0 0 155.03 264.85
  Z"
/>
<path fill="#058689" d="
  M 179.48 252.67
  L 179.50 269.52
  A 0.45 0.45 0.0 0 1 179.06 269.98
  L 173.44 270.04
  A 0.45 0.45 0.0 0 1 172.98 269.59
  L 172.96 252.62
  A 0.45 0.45 0.0 0 0 172.50 252.17
  L 166.33 252.24
  A 0.45 0.45 0.0 0 1 165.87 251.79
  L 165.91 247.45
  A 0.45 0.45 0.0 0 1 166.36 247.00
  L 186.07 246.99
  A 0.45 0.45 0.0 0 1 186.52 247.44
  L 186.49 251.77
  A 0.45 0.45 0.0 0 1 186.04 252.22
  L 179.93 252.22
  A 0.45 0.45 0.0 0 0 179.48 252.67
  Z"
/>
<path fill="#058689" d="
  M 204.36 255.16
  L 204.43 247.49
  A 0.51 0.51 0.0 0 1 204.94 246.98
  L 210.43 247.01
  A 0.51 0.51 0.0 0 1 210.94 247.52
  L 211.00 269.47
  A 0.51 0.51 0.0 0 1 210.49 269.98
  L 204.93 270.02
  A 0.51 0.51 0.0 0 1 204.42 269.51
  L 204.37 261.53
  A 0.51 0.51 0.0 0 0 203.86 261.02
  L 196.05 261.03
  A 0.51 0.51 0.0 0 0 195.54 261.54
  L 195.58 269.46
  A 0.51 0.51 0.0 0 1 195.07 269.98
  L 189.54 270.05
  A 0.51 0.51 0.0 0 1 189.02 269.54
  L 189.00 247.48
  A 0.51 0.51 0.0 0 1 189.51 246.97
  L 195.09 247.01
  A 0.51 0.51 0.0 0 1 195.60 247.52
  L 195.54 255.14
  A 0.51 0.51 0.0 0 0 196.05 255.65
  L 203.85 255.67
  A 0.51 0.51 0.0 0 0 204.36 255.16
  Z"
/>
<path fill="#058689" d="
  M 236.47 252.71
  L 236.50 269.47
  A 0.50 0.50 0.0 0 1 236.01 269.97
  L 230.49 270.08
  A 0.50 0.50 0.0 0 1 229.98 269.58
  L 229.96 252.66
  A 0.50 0.50 0.0 0 0 229.45 252.16
  L 223.40 252.24
  A 0.50 0.50 0.0 0 1 222.90 251.75
  L 222.86 247.50
  A 0.50 0.50 0.0 0 1 223.36 247.00
  L 243.01 247.00
  A 0.50 0.50 0.0 0 1 243.51 247.50
  L 243.50 251.71
  A 0.50 0.50 0.0 0 1 243.00 252.21
  L 236.97 252.21
  A 0.50 0.50 0.0 0 0 236.47 252.71
  Z"
/>
<path fill="#058689" d="
  M 251.42 265.74
  L 249.75 269.77
  A 0.39 0.39 0.0 0 1 249.39 270.01
  L 243.65 270.01
  A 0.39 0.39 0.0 0 1 243.29 269.46
  L 253.07 247.23
  A 0.39 0.39 0.0 0 1 253.42 247.00
  L 259.32 246.99
  A 0.39 0.39 0.0 0 1 259.67 247.22
  L 269.55 269.46
  A 0.39 0.39 0.0 0 1 269.19 270.01
  L 263.20 270.02
  A 0.39 0.39 0.0 0 1 262.84 269.77
  L 261.34 265.77
  A 0.39 0.39 0.0 0 0 260.98 265.52
  L 251.78 265.50
  A 0.39 0.39 0.0 0 0 251.42 265.74
  Z
  M 253.54 260.28
  A 0.34 0.34 0.0 0 0 253.85 260.75
  L 258.78 260.75
  A 0.34 0.34 0.0 0 0 259.10 260.29
  L 256.64 254.23
  A 0.34 0.34 0.0 0 0 256.01 254.23
  L 253.54 260.28
  Z"
/>
<path fill="#ffffff" d="
  M 130.09 260.20
  L 132.49 254.30
  A 0.39 0.39 0.0 0 1 133.21 254.31
  L 135.52 260.24
  A 0.39 0.39 0.0 0 1 135.15 260.77
  L 130.45 260.74
  A 0.39 0.39 0.0 0 1 130.09 260.20
  Z"
/>
<path fill="#ffffff" d="
  M 253.54 260.28
  L 256.01 254.23
  A 0.34 0.34 0.0 0 1 256.64 254.23
  L 259.10 260.29
  A 0.34 0.34 0.0 0 1 258.78 260.75
  L 253.85 260.75
  A 0.34 0.34 0.0 0 1 253.54 260.28
  Z"
/>
</svg>
