<svg id="visual" viewBox="0 0 1920 1080" width="1920" height="1080" xmlns="http://www.w3.org/2000/svg" xmlns:xlink="http://www.w3.org/1999/xlink" version="1.1"><rect x="0" y="0" width="1920" height="1080" fill="#f4f4f4"></rect><defs><linearGradient id="grad1_0" x1="43.8%" y1="0%" x2="100%" y2="100%"><stop offset="14.444444444444446%" stop-color="#f4f4f4" stop-opacity="1"></stop><stop offset="85.55555555555554%" stop-color="#f4f4f4" stop-opacity="1"></stop></linearGradient></defs><defs><linearGradient id="grad2_0" x1="0%" y1="0%" x2="56.3%" y2="100%"><stop offset="14.444444444444446%" stop-color="#f4f4f4" stop-opacity="1"></stop><stop offset="85.55555555555554%" stop-color="#f4f4f4" stop-opacity="1"></stop></linearGradient></defs><g transform="translate(1920, 0)"><path d="M0 756C-55.1 675.4 -110.3 594.9 -186.6 574.4C-263 554 -360.7 593.8 -409.1 563.1C-457.5 532.4 -456.8 431.2 -509.7 370.3C-562.5 309.4 -669 288.6 -719 233.6C-769 178.6 -762.5 89.3 -756 0L0 0Z" fill="#3c55cb"></path></g><g transform="translate(0, 1080)"><path d="M0 -756C86.8 -760.1 173.5 -764.2 233.6 -719C293.7 -673.8 327.1 -579.3 380.3 -523.4C433.5 -467.6 506.4 -450.3 559 -406.2C611.6 -362 643.9 -291 673.3 -218.8C702.8 -146.6 729.4 -73.3 756 0L0 0Z" fill="#3c55cb"></path></g></svg>